<?xml version="1.0" standalone="no"?>
<!DOCTYPE svg PUBLIC "-//W3C//DTD SVG 20010904//EN"
 "http://www.w3.org/TR/2001/REC-SVG-20010904/DTD/svg10.dtd">
<svg version="1.0" xmlns="http://www.w3.org/2000/svg"
 width="500.000000pt" height="500.000000pt" viewBox="0 0 500.000000 500.000000"
 preserveAspectRatio="xMidYMid meet">

<g transform="translate(0.000000,500.000000) scale(0.100000,-0.100000)"
fill="#000000" stroke="none">
<path d="M795 3301 c-51 -13 -107 -43 -143 -79 -41 -42 -82 -125 -82 -169 l0
-33 128 -1 c117 0 124 -1 87 -13 -61 -19 -97 -41 -136 -83 -55 -57 -72 -98
-77 -184 -4 -67 -1 -84 21 -130 40 -84 78 -119 164 -155 l58 -24 -122 0 -123
0 0 -33 c0 -19 14 -62 31 -96 36 -72 97 -124 172 -146 90 -27 87 -31 88 103
l0 117 20 -52 c39 -101 160 -183 270 -183 110 0 237 91 271 195 l17 50 0 -124
1 -124 42 7 c65 11 122 40 167 86 40 42 81 129 81 175 l0 25 -122 0 -123 0 60
25 c255 103 243 457 -18 546 l-52 18 128 0 127 1 0 25 c0 13 -9 48 -20 77 -34
91 -127 164 -232 183 l-38 7 -1 -123 c0 -74 -4 -114 -8 -99 -69 224 -342 290
-496 118 -24 -26 -50 -68 -58 -91 -15 -42 -15 -41 -16 76 -1 129 2 124 -66
108z m268 -300 c-91 -31 -162 -100 -188 -183 -13 -41 -14 -38 -14 80 l-1 122
128 -1 127 0 -52 -18z m376 -103 l0 -123 -21 54 c-30 80 -99 144 -179 170
l-64 20 133 0 132 1 -1 -122z m1 -348 l0 -120 -122 1 -123 0 54 21 c73 28 143
98 167 166 10 28 20 52 21 52 2 0 3 -54 3 -120z m-502 -21 c32 -34 66 -57 107
-74 l60 -25 -122 0 -123 0 1 118 1 117 15 -43 c8 -23 36 -65 61 -93z"/>
<path d="M1990 3080 l0 -160 40 0 40 0 0 49 0 48 51 5 c72 7 104 41 104 107 0
81 -46 111 -172 111 l-63 0 0 -160z m141 80 c39 -21 16 -70 -33 -70 -26 0 -28
3 -28 40 0 34 3 40 21 40 11 0 29 -5 40 -10z"/>
<path d="M2293 3155 c-29 -12 -33 -18 -33 -54 l0 -41 33 20 c34 21 87 27 87
10 0 -5 -8 -10 -17 -10 -46 0 -94 -22 -108 -50 -8 -16 -15 -36 -15 -44 0 -25
43 -66 70 -66 14 0 55 0 93 0 l67 0 -6 88 c-8 125 -10 131 -49 148 -43 18 -81
17 -122 -1z m90 -142 c12 -11 -14 -33 -39 -33 -25 0 -34 24 -11 33 18 8 43 8
50 0z"/>
<path d="M2470 3153 c0 -4 20 -58 44 -119 39 -101 42 -115 31 -141 -31 -73
-30 -75 11 -71 l38 3 63 160 c35 88 63 164 63 168 0 5 -16 7 -37 5 -34 -3 -37
-6 -57 -60 -12 -31 -24 -59 -27 -62 -3 -4 -17 22 -30 56 -24 60 -26 63 -62 66
-20 2 -37 0 -37 -5z"/>
<path d="M2806 2744 c-30 -30 -13 -74 29 -74 42 0 59 44 29 74 -8 9 -22 16
-29 16 -7 0 -21 -7 -29 -16z"/>
<path d="M2031 2712 c-52 -26 -74 -63 -79 -131 -5 -69 20 -126 69 -155 38 -22
121 -23 170 0 l39 17 0 69 0 68 -65 0 -65 0 0 -30 c0 -25 4 -30 25 -30 18 0
25 -5 25 -20 0 -17 -7 -20 -40 -20 -53 0 -80 29 -80 87 0 63 35 97 93 90 23
-2 52 -8 65 -12 20 -7 22 -4 22 29 0 30 -5 38 -26 46 -40 16 -116 12 -153 -8z"/>
<path d="M2333 2645 c-40 -17 -63 -61 -63 -121 0 -39 5 -51 34 -80 40 -40 93
-48 157 -23 23 9 27 18 32 68 10 90 -11 141 -65 160 -40 14 -56 13 -95 -4z
m75 -72 c2 -9 -7 -13 -27 -13 -30 0 -39 9 -24 24 11 10 46 3 51 -11z m37 -88
c-40 -19 -70 -18 -85 0 -11 13 -4 15 51 14 62 -1 63 -1 34 -14z"/>
<path d="M2632 2651 c-7 -4 -36 -6 -64 -3 -45 4 -50 3 -45 -12 4 -10 7 -65 7
-122 l0 -104 40 0 40 0 0 79 c0 82 13 110 45 97 12 -4 15 -24 15 -91 l0 -85
40 0 40 0 0 94 c0 52 -3 102 -6 111 -13 32 -83 55 -112 36z"/>
<path d="M3224 2651 c-26 -11 -54 -49 -54 -72 0 -26 32 -59 70 -72 20 -7 37
-16 38 -22 5 -18 -32 -16 -70 4 l-38 19 0 -39 c0 -34 4 -41 28 -50 48 -19 111
-13 138 12 20 19 24 32 22 63 -3 42 -12 50 -83 78 l-30 12 28 4 c16 2 39 -4
52 -12 13 -9 27 -16 30 -16 12 0 4 69 -10 80 -19 16 -94 23 -121 11z"/>
<path d="M2800 2530 l0 -120 35 0 35 0 0 120 0 120 -35 0 -35 0 0 -120z"/>
<path d="M2920 2554 c0 -52 4 -104 10 -114 15 -29 60 -40 103 -25 20 7 37 9
37 4 0 -5 16 -9 36 -9 l37 0 -7 46 c-3 26 -6 80 -6 120 l0 74 -35 0 -34 0 -3
-82 c-3 -79 -4 -83 -27 -86 -33 -5 -41 12 -41 96 l0 72 -35 0 -35 0 0 -96z"/>
<path d="M1970 2245 c0 -30 5 -55 10 -55 6 0 10 7 10 15 0 8 8 15 18 15 23 0
42 19 42 42 0 20 -28 38 -59 38 -19 0 -21 -6 -21 -55z m48 14 c-2 -6 -8 -10
-13 -10 -5 0 -11 4 -13 10 -2 6 4 11 13 11 9 0 15 -5 13 -11z"/>
<path d="M2225 2288 c-5 -12 -18 -18 -42 -18 -28 0 -34 -3 -29 -16 3 -9 6 -27
6 -40 0 -33 18 -30 22 3 2 17 10 29 21 31 13 3 17 -3 17 -27 0 -24 4 -31 20
-31 11 0 20 5 20 10 0 6 -4 10 -10 10 -14 0 -12 37 3 43 8 4 9 8 1 14 -6 4
-13 15 -16 23 -5 13 -7 12 -13 -2z"/>
<path d="M2360 2245 c0 -30 5 -55 10 -55 6 0 10 25 10 55 0 30 -4 55 -10 55
-5 0 -10 -25 -10 -55z"/>
<path d="M2064 2256 c-3 -8 -4 -25 -2 -38 2 -18 10 -24 35 -26 28 -3 33 1 39
23 4 15 1 31 -6 40 -16 19 -59 19 -66 1z m46 -26 c0 -21 -15 -27 -25 -10 -7
12 2 30 16 30 5 0 9 -9 9 -20z"/>
<path d="M2278 2263 c-3 -4 -5 -23 -6 -40 -2 -31 -1 -33 33 -33 36 0 36 1 33
38 -3 32 -7 37 -30 40 -14 2 -28 0 -30 -5z"/>
</g>
</svg>
